<mxfile host="app.diagrams.net" modified="2023-04-22T16:56:49.592Z" agent="Mozilla/5.0 (Windows NT 10.0; Win64; x64) AppleWebKit/537.36 (KHTML, like Gecko) Chrome/112.0.0.0 Safari/537.36 Edg/112.0.1722.48" etag="oNj5MzPMyy98bmDCjUsV" version="21.2.1" type="device">
  <diagram name="Page-1" id="IDW1zoYCDcWy_ZSY_7Tn">
    <mxGraphModel dx="1744" dy="959" grid="1" gridSize="10" guides="1" tooltips="1" connect="1" arrows="1" fold="1" page="1" pageScale="1" pageWidth="850" pageHeight="1100" math="0" shadow="0">
      <root>
        <mxCell id="0" />
        <mxCell id="1" parent="0" />
        <mxCell id="7HSeE0GF_UTyPeysVvRk-8" style="edgeStyle=none;rounded=0;orthogonalLoop=1;jettySize=auto;html=1;exitX=0.25;exitY=0;exitDx=0;exitDy=0;entryX=0.5;entryY=1;entryDx=0;entryDy=0;" edge="1" parent="1" source="7HSeE0GF_UTyPeysVvRk-1" target="7HSeE0GF_UTyPeysVvRk-5">
          <mxGeometry relative="1" as="geometry" />
        </mxCell>
        <mxCell id="7HSeE0GF_UTyPeysVvRk-9" style="edgeStyle=none;rounded=0;orthogonalLoop=1;jettySize=auto;html=1;exitX=0.75;exitY=0;exitDx=0;exitDy=0;entryX=0.5;entryY=1;entryDx=0;entryDy=0;" edge="1" parent="1" source="7HSeE0GF_UTyPeysVvRk-1" target="7HSeE0GF_UTyPeysVvRk-2">
          <mxGeometry relative="1" as="geometry" />
        </mxCell>
        <mxCell id="7HSeE0GF_UTyPeysVvRk-11" style="edgeStyle=none;rounded=0;orthogonalLoop=1;jettySize=auto;html=1;exitX=0.5;exitY=1;exitDx=0;exitDy=0;entryX=0.5;entryY=0;entryDx=0;entryDy=0;" edge="1" parent="1" source="7HSeE0GF_UTyPeysVvRk-1" target="7HSeE0GF_UTyPeysVvRk-12">
          <mxGeometry relative="1" as="geometry">
            <mxPoint x="419.73913043478274" y="319.9999999999999" as="targetPoint" />
          </mxGeometry>
        </mxCell>
        <mxCell id="7HSeE0GF_UTyPeysVvRk-17" style="edgeStyle=none;rounded=0;orthogonalLoop=1;jettySize=auto;html=1;exitX=1;exitY=0.25;exitDx=0;exitDy=0;entryX=0;entryY=1;entryDx=0;entryDy=0;" edge="1" parent="1" source="7HSeE0GF_UTyPeysVvRk-1" target="7HSeE0GF_UTyPeysVvRk-16">
          <mxGeometry relative="1" as="geometry" />
        </mxCell>
        <mxCell id="7HSeE0GF_UTyPeysVvRk-32" style="edgeStyle=none;rounded=0;orthogonalLoop=1;jettySize=auto;html=1;exitX=0;exitY=0.25;exitDx=0;exitDy=0;entryX=1;entryY=1;entryDx=0;entryDy=0;" edge="1" parent="1" source="7HSeE0GF_UTyPeysVvRk-1" target="7HSeE0GF_UTyPeysVvRk-31">
          <mxGeometry relative="1" as="geometry" />
        </mxCell>
        <mxCell id="7HSeE0GF_UTyPeysVvRk-1" value="Pessoa" style="whiteSpace=wrap;html=1;align=center;" vertex="1" parent="1">
          <mxGeometry x="360" y="200" width="120" height="40" as="geometry" />
        </mxCell>
        <mxCell id="7HSeE0GF_UTyPeysVvRk-2" value="dtaNasc" style="ellipse;whiteSpace=wrap;html=1;align=center;" vertex="1" parent="1">
          <mxGeometry x="450" y="100" width="80" height="40" as="geometry" />
        </mxCell>
        <mxCell id="7HSeE0GF_UTyPeysVvRk-3" value="apelido" style="ellipse;whiteSpace=wrap;html=1;align=center;" vertex="1" parent="1">
          <mxGeometry x="380" y="40" width="80" height="40" as="geometry" />
        </mxCell>
        <mxCell id="7HSeE0GF_UTyPeysVvRk-4" value="pnome" style="ellipse;whiteSpace=wrap;html=1;align=center;" vertex="1" parent="1">
          <mxGeometry x="260" y="40" width="80" height="40" as="geometry" />
        </mxCell>
        <mxCell id="7HSeE0GF_UTyPeysVvRk-6" style="edgeStyle=none;rounded=0;orthogonalLoop=1;jettySize=auto;html=1;exitX=0.5;exitY=0;exitDx=0;exitDy=0;entryX=1;entryY=1;entryDx=0;entryDy=0;" edge="1" parent="1" source="7HSeE0GF_UTyPeysVvRk-5" target="7HSeE0GF_UTyPeysVvRk-4">
          <mxGeometry relative="1" as="geometry" />
        </mxCell>
        <mxCell id="7HSeE0GF_UTyPeysVvRk-7" style="edgeStyle=none;rounded=0;orthogonalLoop=1;jettySize=auto;html=1;exitX=0.5;exitY=0;exitDx=0;exitDy=0;entryX=0;entryY=1;entryDx=0;entryDy=0;" edge="1" parent="1" source="7HSeE0GF_UTyPeysVvRk-5" target="7HSeE0GF_UTyPeysVvRk-3">
          <mxGeometry relative="1" as="geometry">
            <mxPoint x="363" y="80" as="targetPoint" />
          </mxGeometry>
        </mxCell>
        <mxCell id="7HSeE0GF_UTyPeysVvRk-5" value="nome" style="ellipse;whiteSpace=wrap;html=1;align=center;" vertex="1" parent="1">
          <mxGeometry x="320" y="120" width="85" height="40" as="geometry" />
        </mxCell>
        <mxCell id="7HSeE0GF_UTyPeysVvRk-13" style="edgeStyle=none;rounded=0;orthogonalLoop=1;jettySize=auto;html=1;exitX=0.5;exitY=1;exitDx=0;exitDy=0;entryX=0.5;entryY=0;entryDx=0;entryDy=0;" edge="1" parent="1" source="7HSeE0GF_UTyPeysVvRk-12" target="7HSeE0GF_UTyPeysVvRk-18">
          <mxGeometry relative="1" as="geometry">
            <mxPoint x="200" y="399.9999999999999" as="targetPoint" />
          </mxGeometry>
        </mxCell>
        <mxCell id="7HSeE0GF_UTyPeysVvRk-14" style="edgeStyle=none;rounded=0;orthogonalLoop=1;jettySize=auto;html=1;exitX=0.5;exitY=1;exitDx=0;exitDy=0;entryX=0.5;entryY=0;entryDx=0;entryDy=0;" edge="1" parent="1" source="7HSeE0GF_UTyPeysVvRk-12" target="7HSeE0GF_UTyPeysVvRk-20">
          <mxGeometry relative="1" as="geometry">
            <mxPoint x="419.73913043478274" y="399.9999999999999" as="targetPoint" />
          </mxGeometry>
        </mxCell>
        <mxCell id="7HSeE0GF_UTyPeysVvRk-15" style="edgeStyle=none;rounded=0;orthogonalLoop=1;jettySize=auto;html=1;exitX=0.5;exitY=1;exitDx=0;exitDy=0;entryX=0.5;entryY=0;entryDx=0;entryDy=0;" edge="1" parent="1" source="7HSeE0GF_UTyPeysVvRk-12" target="7HSeE0GF_UTyPeysVvRk-19">
          <mxGeometry relative="1" as="geometry">
            <mxPoint x="640" y="400" as="targetPoint" />
          </mxGeometry>
        </mxCell>
        <mxCell id="7HSeE0GF_UTyPeysVvRk-12" value="d" style="ellipse;whiteSpace=wrap;html=1;aspect=fixed;" vertex="1" parent="1">
          <mxGeometry x="400" y="280" width="40" height="40" as="geometry" />
        </mxCell>
        <mxCell id="7HSeE0GF_UTyPeysVvRk-16" value="idade" style="ellipse;whiteSpace=wrap;html=1;align=center;dashed=1;" vertex="1" parent="1">
          <mxGeometry x="530" y="140" width="80" height="40" as="geometry" />
        </mxCell>
        <mxCell id="7HSeE0GF_UTyPeysVvRk-28" style="edgeStyle=none;rounded=0;orthogonalLoop=1;jettySize=auto;html=1;exitX=0;exitY=0.25;exitDx=0;exitDy=0;entryX=1;entryY=1;entryDx=0;entryDy=0;" edge="1" parent="1" source="7HSeE0GF_UTyPeysVvRk-18" target="7HSeE0GF_UTyPeysVvRk-27">
          <mxGeometry relative="1" as="geometry" />
        </mxCell>
        <mxCell id="7HSeE0GF_UTyPeysVvRk-29" style="edgeStyle=none;rounded=0;orthogonalLoop=1;jettySize=auto;html=1;exitX=0;exitY=0.75;exitDx=0;exitDy=0;entryX=1;entryY=0;entryDx=0;entryDy=0;" edge="1" parent="1" source="7HSeE0GF_UTyPeysVvRk-18" target="7HSeE0GF_UTyPeysVvRk-25">
          <mxGeometry relative="1" as="geometry" />
        </mxCell>
        <mxCell id="7HSeE0GF_UTyPeysVvRk-30" style="edgeStyle=none;rounded=0;orthogonalLoop=1;jettySize=auto;html=1;exitX=0;exitY=0.5;exitDx=0;exitDy=0;entryX=1;entryY=0.5;entryDx=0;entryDy=0;" edge="1" parent="1" source="7HSeE0GF_UTyPeysVvRk-18" target="7HSeE0GF_UTyPeysVvRk-26">
          <mxGeometry relative="1" as="geometry" />
        </mxCell>
        <mxCell id="7HSeE0GF_UTyPeysVvRk-33" style="edgeStyle=none;rounded=0;orthogonalLoop=1;jettySize=auto;html=1;exitX=0.25;exitY=1;exitDx=0;exitDy=0;" edge="1" parent="1" source="7HSeE0GF_UTyPeysVvRk-18" target="7HSeE0GF_UTyPeysVvRk-24">
          <mxGeometry relative="1" as="geometry" />
        </mxCell>
        <mxCell id="7HSeE0GF_UTyPeysVvRk-18" value="funcionÃ¡rio" style="whiteSpace=wrap;html=1;align=center;" vertex="1" parent="1">
          <mxGeometry x="140" y="400" width="120" height="40" as="geometry" />
        </mxCell>
        <mxCell id="7HSeE0GF_UTyPeysVvRk-45" value="" style="edgeStyle=none;rounded=0;orthogonalLoop=1;jettySize=auto;html=1;" edge="1" parent="1" source="7HSeE0GF_UTyPeysVvRk-19" target="7HSeE0GF_UTyPeysVvRk-38">
          <mxGeometry relative="1" as="geometry" />
        </mxCell>
        <mxCell id="7HSeE0GF_UTyPeysVvRk-46" style="edgeStyle=none;rounded=0;orthogonalLoop=1;jettySize=auto;html=1;exitX=1;exitY=0.25;exitDx=0;exitDy=0;entryX=0;entryY=1;entryDx=0;entryDy=0;" edge="1" parent="1" source="7HSeE0GF_UTyPeysVvRk-19" target="7HSeE0GF_UTyPeysVvRk-42">
          <mxGeometry relative="1" as="geometry" />
        </mxCell>
        <mxCell id="7HSeE0GF_UTyPeysVvRk-47" style="edgeStyle=none;rounded=0;orthogonalLoop=1;jettySize=auto;html=1;exitX=1;exitY=0.75;exitDx=0;exitDy=0;entryX=0;entryY=0;entryDx=0;entryDy=0;" edge="1" parent="1" source="7HSeE0GF_UTyPeysVvRk-19" target="7HSeE0GF_UTyPeysVvRk-39">
          <mxGeometry relative="1" as="geometry" />
        </mxCell>
        <mxCell id="7HSeE0GF_UTyPeysVvRk-19" value="visitante" style="whiteSpace=wrap;html=1;align=center;" vertex="1" parent="1">
          <mxGeometry x="580" y="400" width="120" height="40" as="geometry" />
        </mxCell>
        <mxCell id="7HSeE0GF_UTyPeysVvRk-34" style="edgeStyle=none;rounded=0;orthogonalLoop=1;jettySize=auto;html=1;exitX=0.25;exitY=1;exitDx=0;exitDy=0;entryX=1;entryY=0;entryDx=0;entryDy=0;" edge="1" parent="1" source="7HSeE0GF_UTyPeysVvRk-20" target="7HSeE0GF_UTyPeysVvRk-23">
          <mxGeometry relative="1" as="geometry" />
        </mxCell>
        <mxCell id="7HSeE0GF_UTyPeysVvRk-41" style="edgeStyle=none;rounded=0;orthogonalLoop=1;jettySize=auto;html=1;exitX=0.75;exitY=1;exitDx=0;exitDy=0;entryX=0;entryY=0;entryDx=0;entryDy=0;" edge="1" parent="1" source="7HSeE0GF_UTyPeysVvRk-20" target="7HSeE0GF_UTyPeysVvRk-35">
          <mxGeometry relative="1" as="geometry" />
        </mxCell>
        <mxCell id="7HSeE0GF_UTyPeysVvRk-20" value="utente" style="whiteSpace=wrap;html=1;align=center;" vertex="1" parent="1">
          <mxGeometry x="360" y="400" width="120" height="40" as="geometry" />
        </mxCell>
        <mxCell id="7HSeE0GF_UTyPeysVvRk-23" value="dtaEntrada" style="ellipse;whiteSpace=wrap;html=1;align=center;" vertex="1" parent="1">
          <mxGeometry x="300" y="450" width="80" height="40" as="geometry" />
        </mxCell>
        <mxCell id="7HSeE0GF_UTyPeysVvRk-24" value="dtaContrato" style="ellipse;whiteSpace=wrap;html=1;align=center;" vertex="1" parent="1">
          <mxGeometry x="70" y="520" width="80" height="40" as="geometry" />
        </mxCell>
        <mxCell id="7HSeE0GF_UTyPeysVvRk-25" value="idCategoria" style="ellipse;whiteSpace=wrap;html=1;align=center;" vertex="1" parent="1">
          <mxGeometry x="40" y="460" width="80" height="40" as="geometry" />
        </mxCell>
        <mxCell id="7HSeE0GF_UTyPeysVvRk-26" value="salario" style="ellipse;whiteSpace=wrap;html=1;align=center;" vertex="1" parent="1">
          <mxGeometry x="40" y="400" width="80" height="40" as="geometry" />
        </mxCell>
        <mxCell id="7HSeE0GF_UTyPeysVvRk-27" value="id" style="ellipse;whiteSpace=wrap;html=1;align=center;fontStyle=4;" vertex="1" parent="1">
          <mxGeometry x="40" y="340" width="80" height="40" as="geometry" />
        </mxCell>
        <mxCell id="7HSeE0GF_UTyPeysVvRk-31" value="genero" style="ellipse;whiteSpace=wrap;html=1;align=center;" vertex="1" parent="1">
          <mxGeometry x="230" y="150" width="85" height="40" as="geometry" />
        </mxCell>
        <mxCell id="7HSeE0GF_UTyPeysVvRk-35" value="id" style="ellipse;whiteSpace=wrap;html=1;align=center;fontStyle=4;" vertex="1" parent="1">
          <mxGeometry x="460" y="450" width="80" height="40" as="geometry" />
        </mxCell>
        <mxCell id="7HSeE0GF_UTyPeysVvRk-38" value="parentesco" style="ellipse;whiteSpace=wrap;html=1;align=center;" vertex="1" parent="1">
          <mxGeometry x="720" y="400" width="80" height="40" as="geometry" />
        </mxCell>
        <mxCell id="7HSeE0GF_UTyPeysVvRk-39" value="contacto" style="ellipse;shape=doubleEllipse;margin=3;whiteSpace=wrap;html=1;align=center;" vertex="1" parent="1">
          <mxGeometry x="720" y="460" width="80" height="40" as="geometry" />
        </mxCell>
        <mxCell id="7HSeE0GF_UTyPeysVvRk-42" value="id" style="ellipse;whiteSpace=wrap;html=1;align=center;fontStyle=4;" vertex="1" parent="1">
          <mxGeometry x="720" y="340" width="75" height="40" as="geometry" />
        </mxCell>
        <mxCell id="7HSeE0GF_UTyPeysVvRk-52" style="edgeStyle=none;rounded=0;orthogonalLoop=1;jettySize=auto;html=1;exitX=0;exitY=0.5;exitDx=0;exitDy=0;entryX=1;entryY=0.5;entryDx=0;entryDy=0;" edge="1" parent="1" source="7HSeE0GF_UTyPeysVvRk-48" target="7HSeE0GF_UTyPeysVvRk-49">
          <mxGeometry relative="1" as="geometry" />
        </mxCell>
        <mxCell id="7HSeE0GF_UTyPeysVvRk-53" style="edgeStyle=none;rounded=0;orthogonalLoop=1;jettySize=auto;html=1;exitX=0;exitY=0.75;exitDx=0;exitDy=0;entryX=1;entryY=0;entryDx=0;entryDy=0;" edge="1" parent="1" source="7HSeE0GF_UTyPeysVvRk-48" target="7HSeE0GF_UTyPeysVvRk-51">
          <mxGeometry relative="1" as="geometry" />
        </mxCell>
        <mxCell id="7HSeE0GF_UTyPeysVvRk-48" value="categoria" style="whiteSpace=wrap;html=1;align=center;" vertex="1" parent="1">
          <mxGeometry x="140" y="630" width="120" height="40" as="geometry" />
        </mxCell>
        <mxCell id="7HSeE0GF_UTyPeysVvRk-49" value="&lt;span style=&quot;border-bottom: 1px dotted&quot;&gt;id&lt;/span&gt;" style="ellipse;whiteSpace=wrap;html=1;align=center;" vertex="1" parent="1">
          <mxGeometry x="40" y="630" width="80" height="40" as="geometry" />
        </mxCell>
        <mxCell id="7HSeE0GF_UTyPeysVvRk-51" value="funcao" style="ellipse;whiteSpace=wrap;html=1;align=center;" vertex="1" parent="1">
          <mxGeometry x="40" y="690" width="80" height="40" as="geometry" />
        </mxCell>
        <mxCell id="7HSeE0GF_UTyPeysVvRk-65" style="edgeStyle=none;rounded=0;orthogonalLoop=1;jettySize=auto;html=1;exitX=1;exitY=0.5;exitDx=0;exitDy=0;entryX=0;entryY=0.5;entryDx=0;entryDy=0;" edge="1" parent="1" source="7HSeE0GF_UTyPeysVvRk-56" target="7HSeE0GF_UTyPeysVvRk-58">
          <mxGeometry relative="1" as="geometry" />
        </mxCell>
        <mxCell id="7HSeE0GF_UTyPeysVvRk-66" style="edgeStyle=none;rounded=0;orthogonalLoop=1;jettySize=auto;html=1;exitX=1;exitY=0;exitDx=0;exitDy=0;entryX=0;entryY=1;entryDx=0;entryDy=0;" edge="1" parent="1" source="7HSeE0GF_UTyPeysVvRk-56" target="7HSeE0GF_UTyPeysVvRk-57">
          <mxGeometry relative="1" as="geometry" />
        </mxCell>
        <mxCell id="7HSeE0GF_UTyPeysVvRk-67" style="edgeStyle=none;rounded=0;orthogonalLoop=1;jettySize=auto;html=1;exitX=1;exitY=0.75;exitDx=0;exitDy=0;entryX=0;entryY=0.25;entryDx=0;entryDy=0;entryPerimeter=0;" edge="1" parent="1" source="7HSeE0GF_UTyPeysVvRk-56" target="7HSeE0GF_UTyPeysVvRk-69">
          <mxGeometry relative="1" as="geometry" />
        </mxCell>
        <mxCell id="7HSeE0GF_UTyPeysVvRk-68" style="edgeStyle=none;rounded=0;orthogonalLoop=1;jettySize=auto;html=1;exitX=1;exitY=1;exitDx=0;exitDy=0;entryX=0;entryY=0.5;entryDx=0;entryDy=0;" edge="1" parent="1" source="7HSeE0GF_UTyPeysVvRk-56" target="7HSeE0GF_UTyPeysVvRk-64">
          <mxGeometry relative="1" as="geometry">
            <mxPoint x="720" y="750.5882352941177" as="targetPoint" />
          </mxGeometry>
        </mxCell>
        <mxCell id="7HSeE0GF_UTyPeysVvRk-56" value="visita" style="whiteSpace=wrap;html=1;align=center;" vertex="1" parent="1">
          <mxGeometry x="580" y="630" width="120" height="40" as="geometry" />
        </mxCell>
        <mxCell id="7HSeE0GF_UTyPeysVvRk-57" value="&lt;span style=&quot;border-bottom: 1px dotted&quot;&gt;id&lt;/span&gt;" style="ellipse;whiteSpace=wrap;html=1;align=center;" vertex="1" parent="1">
          <mxGeometry x="717.5" y="550" width="80" height="40" as="geometry" />
        </mxCell>
        <mxCell id="7HSeE0GF_UTyPeysVvRk-58" value="dtaVisita" style="ellipse;whiteSpace=wrap;html=1;align=center;" vertex="1" parent="1">
          <mxGeometry x="720" y="610" width="80" height="40" as="geometry" />
        </mxCell>
        <mxCell id="7HSeE0GF_UTyPeysVvRk-64" value="localizacao" style="ellipse;whiteSpace=wrap;html=1;align=center;" vertex="1" parent="1">
          <mxGeometry x="720" y="730" width="80" height="40" as="geometry" />
        </mxCell>
        <mxCell id="7HSeE0GF_UTyPeysVvRk-69" value="idTipo" style="ellipse;whiteSpace=wrap;html=1;align=center;" vertex="1" parent="1">
          <mxGeometry x="720" y="670" width="80" height="40" as="geometry" />
        </mxCell>
        <mxCell id="7HSeE0GF_UTyPeysVvRk-79" style="edgeStyle=none;rounded=0;orthogonalLoop=1;jettySize=auto;html=1;exitX=1;exitY=0;exitDx=0;exitDy=0;entryX=0;entryY=0.5;entryDx=0;entryDy=0;" edge="1" parent="1" source="7HSeE0GF_UTyPeysVvRk-70" target="7HSeE0GF_UTyPeysVvRk-73">
          <mxGeometry relative="1" as="geometry" />
        </mxCell>
        <mxCell id="7HSeE0GF_UTyPeysVvRk-80" style="edgeStyle=none;rounded=0;orthogonalLoop=1;jettySize=auto;html=1;exitX=1;exitY=0.5;exitDx=0;exitDy=0;entryX=0;entryY=0.5;entryDx=0;entryDy=0;" edge="1" parent="1" source="7HSeE0GF_UTyPeysVvRk-70" target="7HSeE0GF_UTyPeysVvRk-74">
          <mxGeometry relative="1" as="geometry" />
        </mxCell>
        <mxCell id="7HSeE0GF_UTyPeysVvRk-81" style="edgeStyle=none;rounded=0;orthogonalLoop=1;jettySize=auto;html=1;exitX=1;exitY=1;exitDx=0;exitDy=0;entryX=0;entryY=0.5;entryDx=0;entryDy=0;" edge="1" parent="1" source="7HSeE0GF_UTyPeysVvRk-70" target="7HSeE0GF_UTyPeysVvRk-75">
          <mxGeometry relative="1" as="geometry" />
        </mxCell>
        <mxCell id="7HSeE0GF_UTyPeysVvRk-70" value="tipoVisita" style="whiteSpace=wrap;html=1;align=center;" vertex="1" parent="1">
          <mxGeometry x="580" y="860" width="120" height="40" as="geometry" />
        </mxCell>
        <mxCell id="7HSeE0GF_UTyPeysVvRk-72" style="edgeStyle=none;rounded=0;orthogonalLoop=1;jettySize=auto;html=1;exitX=0.5;exitY=1;exitDx=0;exitDy=0;" edge="1" parent="1" source="7HSeE0GF_UTyPeysVvRk-69" target="7HSeE0GF_UTyPeysVvRk-69">
          <mxGeometry relative="1" as="geometry" />
        </mxCell>
        <mxCell id="7HSeE0GF_UTyPeysVvRk-73" value="id" style="ellipse;whiteSpace=wrap;html=1;align=center;fontStyle=4;" vertex="1" parent="1">
          <mxGeometry x="720" y="800" width="80" height="40" as="geometry" />
        </mxCell>
        <mxCell id="7HSeE0GF_UTyPeysVvRk-74" value="tipo" style="ellipse;whiteSpace=wrap;html=1;align=center;" vertex="1" parent="1">
          <mxGeometry x="717.5" y="860" width="80" height="40" as="geometry" />
        </mxCell>
        <mxCell id="7HSeE0GF_UTyPeysVvRk-75" value="descricao" style="ellipse;whiteSpace=wrap;html=1;align=center;" vertex="1" parent="1">
          <mxGeometry x="720" y="920" width="80" height="40" as="geometry" />
        </mxCell>
        <mxCell id="7HSeE0GF_UTyPeysVvRk-86" value="porta" style="ellipse;whiteSpace=wrap;html=1;align=center;" vertex="1" parent="1">
          <mxGeometry x="70" y="990" width="70" height="40" as="geometry" />
        </mxCell>
        <mxCell id="7HSeE0GF_UTyPeysVvRk-87" value="andar" style="ellipse;whiteSpace=wrap;html=1;align=center;" vertex="1" parent="1">
          <mxGeometry x="165" y="990" width="70" height="40" as="geometry" />
        </mxCell>
        <mxCell id="7HSeE0GF_UTyPeysVvRk-88" value="edificio" style="ellipse;whiteSpace=wrap;html=1;align=center;" vertex="1" parent="1">
          <mxGeometry x="260" y="990" width="70" height="40" as="geometry" />
        </mxCell>
        <mxCell id="7HSeE0GF_UTyPeysVvRk-97" style="edgeStyle=none;rounded=0;orthogonalLoop=1;jettySize=auto;html=1;exitX=0.25;exitY=1;exitDx=0;exitDy=0;entryX=0.5;entryY=0;entryDx=0;entryDy=0;" edge="1" parent="1" source="7HSeE0GF_UTyPeysVvRk-90" target="7HSeE0GF_UTyPeysVvRk-92">
          <mxGeometry relative="1" as="geometry" />
        </mxCell>
        <mxCell id="7HSeE0GF_UTyPeysVvRk-98" style="edgeStyle=none;rounded=0;orthogonalLoop=1;jettySize=auto;html=1;exitX=0.75;exitY=1;exitDx=0;exitDy=0;entryX=0.5;entryY=0;entryDx=0;entryDy=0;" edge="1" parent="1" source="7HSeE0GF_UTyPeysVvRk-90" target="7HSeE0GF_UTyPeysVvRk-91">
          <mxGeometry relative="1" as="geometry" />
        </mxCell>
        <mxCell id="7HSeE0GF_UTyPeysVvRk-90" value="sala" style="whiteSpace=wrap;html=1;align=center;" vertex="1" parent="1">
          <mxGeometry x="80" y="860" width="120" height="40" as="geometry" />
        </mxCell>
        <mxCell id="7HSeE0GF_UTyPeysVvRk-94" style="edgeStyle=none;rounded=0;orthogonalLoop=1;jettySize=auto;html=1;exitX=0;exitY=1;exitDx=0;exitDy=0;entryX=1;entryY=0;entryDx=0;entryDy=0;" edge="1" parent="1" source="7HSeE0GF_UTyPeysVvRk-91" target="7HSeE0GF_UTyPeysVvRk-86">
          <mxGeometry relative="1" as="geometry" />
        </mxCell>
        <mxCell id="7HSeE0GF_UTyPeysVvRk-95" style="edgeStyle=none;rounded=0;orthogonalLoop=1;jettySize=auto;html=1;exitX=0.5;exitY=1;exitDx=0;exitDy=0;entryX=0.5;entryY=0;entryDx=0;entryDy=0;" edge="1" parent="1" source="7HSeE0GF_UTyPeysVvRk-91" target="7HSeE0GF_UTyPeysVvRk-87">
          <mxGeometry relative="1" as="geometry" />
        </mxCell>
        <mxCell id="7HSeE0GF_UTyPeysVvRk-96" style="edgeStyle=none;rounded=0;orthogonalLoop=1;jettySize=auto;html=1;exitX=1;exitY=1;exitDx=0;exitDy=0;entryX=0;entryY=0;entryDx=0;entryDy=0;" edge="1" parent="1" source="7HSeE0GF_UTyPeysVvRk-91" target="7HSeE0GF_UTyPeysVvRk-88">
          <mxGeometry relative="1" as="geometry" />
        </mxCell>
        <mxCell id="7HSeE0GF_UTyPeysVvRk-91" value="localizacao" style="ellipse;whiteSpace=wrap;html=1;align=center;" vertex="1" parent="1">
          <mxGeometry x="165" y="930" width="70" height="40" as="geometry" />
        </mxCell>
        <mxCell id="7HSeE0GF_UTyPeysVvRk-92" value="id" style="ellipse;whiteSpace=wrap;html=1;align=center;fontStyle=4;" vertex="1" parent="1">
          <mxGeometry x="40" y="930" width="80" height="40" as="geometry" />
        </mxCell>
        <mxCell id="7HSeE0GF_UTyPeysVvRk-93" style="edgeStyle=none;rounded=0;orthogonalLoop=1;jettySize=auto;html=1;exitX=0;exitY=0;exitDx=0;exitDy=0;" edge="1" parent="1" source="7HSeE0GF_UTyPeysVvRk-92" target="7HSeE0GF_UTyPeysVvRk-92">
          <mxGeometry relative="1" as="geometry" />
        </mxCell>
        <mxCell id="7HSeE0GF_UTyPeysVvRk-103" style="edgeStyle=none;rounded=0;orthogonalLoop=1;jettySize=auto;html=1;exitX=0.25;exitY=1;exitDx=0;exitDy=0;entryX=1;entryY=0;entryDx=0;entryDy=0;" edge="1" parent="1" source="7HSeE0GF_UTyPeysVvRk-99" target="7HSeE0GF_UTyPeysVvRk-100">
          <mxGeometry relative="1" as="geometry" />
        </mxCell>
        <mxCell id="7HSeE0GF_UTyPeysVvRk-104" style="edgeStyle=none;rounded=0;orthogonalLoop=1;jettySize=auto;html=1;exitX=0.5;exitY=1;exitDx=0;exitDy=0;entryX=0.5;entryY=0;entryDx=0;entryDy=0;" edge="1" parent="1" source="7HSeE0GF_UTyPeysVvRk-99" target="7HSeE0GF_UTyPeysVvRk-102">
          <mxGeometry relative="1" as="geometry" />
        </mxCell>
        <mxCell id="7HSeE0GF_UTyPeysVvRk-105" style="edgeStyle=none;rounded=0;orthogonalLoop=1;jettySize=auto;html=1;exitX=0.75;exitY=1;exitDx=0;exitDy=0;entryX=0;entryY=0;entryDx=0;entryDy=0;" edge="1" parent="1" source="7HSeE0GF_UTyPeysVvRk-99" target="7HSeE0GF_UTyPeysVvRk-101">
          <mxGeometry relative="1" as="geometry" />
        </mxCell>
        <mxCell id="7HSeE0GF_UTyPeysVvRk-99" value="acolhimento" style="whiteSpace=wrap;html=1;align=center;" vertex="1" parent="1">
          <mxGeometry x="410" y="860" width="120" height="40" as="geometry" />
        </mxCell>
        <mxCell id="7HSeE0GF_UTyPeysVvRk-100" value="id" style="ellipse;whiteSpace=wrap;html=1;align=center;fontStyle=4;" vertex="1" parent="1">
          <mxGeometry x="330" y="920" width="80" height="40" as="geometry" />
        </mxCell>
        <mxCell id="7HSeE0GF_UTyPeysVvRk-101" value="delegacao" style="ellipse;whiteSpace=wrap;html=1;align=center;" vertex="1" parent="1">
          <mxGeometry x="530" y="920" width="90" height="40" as="geometry" />
        </mxCell>
        <mxCell id="7HSeE0GF_UTyPeysVvRk-102" value="descricao" style="ellipse;whiteSpace=wrap;html=1;align=center;" vertex="1" parent="1">
          <mxGeometry x="427.5" y="920" width="85" height="40" as="geometry" />
        </mxCell>
      </root>
    </mxGraphModel>
  </diagram>
</mxfile>
